<?xml version="1.0" encoding="iso-8859-1"?>
<!-- Uploaded to: SVG Repo, www.svgrepo.com, Generator: SVG Repo Mixer Tools -->
<svg height="800px" width="800px" version="1.1" id="Layer_1" xmlns="http://www.w3.org/2000/svg" xmlns:xlink="http://www.w3.org/1999/xlink" 
	 viewBox="0 0 512.001 512.001" xml:space="preserve">
<path style="fill:#CEE8FA;" d="M256,141.783v129.371h129.37C385.369,199.704,327.448,141.783,256,141.783z"/>
<g>
	<path style="fill:#2D527C;" d="M493.038,57.323c-13.001-13.72-31.302-21.588-50.209-21.588c-17.737,0-34.6,6.71-47.493,18.895
		l-11.408,10.532c-2.672,2.465-4.243,5.899-4.364,9.532c-0.122,3.632,1.218,7.163,3.717,9.801l28.894,30.491l-11.422,10.876
		c-38.328-38.171-90.316-59.822-144.757-59.822c-56.391,0-107.535,22.877-144.652,59.833l-11.509-10.906l28.876-30.472
		c2.499-2.638,3.839-6.168,3.718-9.801s-1.693-7.065-4.364-9.532l-11.406-10.532c-12.894-12.186-29.757-18.896-47.495-18.896
		c-18.908,0-37.208,7.868-50.21,21.588C6.254,70.732-0.47,88.285,0.026,106.752s8.154,35.634,21.564,48.342
		c0.042,0.041,0.086,0.08,0.129,0.121l11.468,10.589c2.611,2.411,5.917,3.604,9.215,3.604c3.603,0,7.197-1.424,9.867-4.243
		l28.875-30.472l12.24,11.599c-26.635,34.608-42.501,77.913-42.501,124.86c0,46.515,15.574,89.455,41.767,123.903l-19.13,18.127
		c-5.448,5.163-5.679,13.763-0.516,19.211c2.672,2.82,6.266,4.243,9.866,4.243c3.355,0,6.717-1.235,9.345-3.725l18.286-17.328
		c37.182,37.454,88.675,60.684,145.497,60.684s108.314-23.23,145.497-60.684l18.287,17.329c2.628,2.491,5.989,3.725,9.344,3.725
		c3.6,0,7.194-1.423,9.867-4.243c5.163-5.448,4.932-14.049-0.518-19.211l-19.13-18.127c26.194-34.448,41.767-77.388,41.767-123.903
		c0-7.505-6.085-13.589-13.589-13.589s-13.589,6.084-13.589,13.589c0,98.115-79.822,177.937-177.937,177.937
		S78.062,369.268,78.062,271.153S157.885,93.217,256,93.217c51.352,0,100.202,22.196,134.028,60.894
		c0.048,0.054,0.101,0.099,0.148,0.152c0.071,0.079,0.133,0.163,0.207,0.241c0.096,0.102,0.204,0.189,0.303,0.287
		c0.189,0.188,0.379,0.371,0.576,0.545c0.124,0.109,0.25,0.215,0.378,0.318c0.257,0.212,0.519,0.413,0.788,0.603
		c0.082,0.057,0.163,0.113,0.245,0.167c0.327,0.22,0.662,0.425,1.003,0.616c0.033,0.018,0.065,0.035,0.098,0.053
		c4.853,2.639,11.029,2.153,15.431-1.695c0.417-0.364,0.798-0.754,1.159-1.155l20.511-19.532l28.859,30.453
		c2.67,2.818,6.263,4.243,9.867,4.243c3.3,0,6.604-1.193,9.216-3.605l11.467-10.589c0.042-0.039,0.086-0.08,0.128-0.12
		c13.41-12.706,21.068-29.874,21.565-48.342C512.47,88.285,505.746,70.732,493.038,57.323z M41.767,136.734l-1.544-1.426
		c-8.102-7.707-12.729-18.105-13.03-29.287c-0.302-11.21,3.781-21.865,11.494-30.004c8.008-8.45,18.832-13.104,30.481-13.104
		c10.783,0,21.035,4.086,28.867,11.509c0.042,0.041,0.086,0.08,0.129,0.12l1.354,1.249L41.767,136.734z M484.805,106.022
		c-0.302,11.183-4.928,21.58-13.031,29.288l-1.542,1.424l-57.75-60.943l1.352-1.249c0.043-0.041,0.086-0.08,0.13-0.121
		c7.832-7.421,18.082-11.509,28.865-11.509c11.648,0,22.473,4.654,30.481,13.104C481.024,84.157,485.105,94.812,484.805,106.022z"/>
	<path style="fill:#2D527C;" d="M256,128.193c-7.505,0-13.589,6.084-13.589,13.589v129.371c0,7.505,6.084,13.589,13.589,13.589
		h114.956c-6.753,57.458-55.714,102.19-114.956,102.19c-63.842,0-115.781-51.939-115.781-115.78
		c0-36.437,16.644-70.023,45.665-92.143c5.969-4.55,7.118-13.077,2.57-19.047c-4.551-5.969-13.076-7.117-19.047-2.57
		c-35.821,27.305-56.366,68.77-56.366,113.759c0,78.827,64.131,142.959,142.96,142.959s142.959-64.132,142.959-142.959
		C398.958,192.325,334.828,128.193,256,128.193z M269.589,156.197c0.874,0.103,1.746,0.211,2.613,0.333
		c0.61,0.086,1.223,0.16,1.83,0.255c1.585,0.249,3.158,0.533,4.721,0.845c0.2,0.039,0.404,0.069,0.603,0.111
		c1.749,0.36,3.482,0.765,5.201,1.203c0.573,0.145,1.137,0.313,1.707,0.467c1.151,0.313,2.298,0.631,3.435,0.977
		c0.67,0.204,1.333,0.424,1.996,0.64c1.027,0.334,2.052,0.678,3.066,1.04c0.685,0.245,1.367,0.496,2.047,0.753
		c0.992,0.375,1.976,0.766,2.954,1.167c0.662,0.272,1.325,0.541,1.981,0.825c1.022,0.442,2.032,0.906,3.039,1.377
		c0.584,0.273,1.174,0.535,1.753,0.817c1.333,0.65,2.649,1.329,3.953,2.028c0.315,0.17,0.635,0.333,0.949,0.506
		c1.419,0.777,2.818,1.585,4.201,2.418c0.557,0.336,1.101,0.692,1.651,1.036c0.924,0.579,1.844,1.161,2.751,1.765
		c0.607,0.405,1.205,0.824,1.805,1.239c0.832,0.578,1.658,1.162,2.475,1.761c0.605,0.444,1.205,0.894,1.802,1.349
		c0.799,0.61,1.587,1.233,2.369,1.863c0.575,0.463,1.151,0.924,1.716,1.397c0.815,0.682,1.613,1.383,2.408,2.087
		c0.501,0.444,1.011,0.879,1.504,1.332c1.071,0.981,2.119,1.985,3.153,3.006c0.366,0.36,0.727,0.723,1.087,1.087
		c1.019,1.034,2.025,2.082,3.006,3.153c0.451,0.492,0.885,1,1.328,1.5c0.707,0.798,1.409,1.599,2.094,2.416
		c0.472,0.563,0.931,1.136,1.392,1.708c0.632,0.785,1.257,1.576,1.87,2.378c0.454,0.594,0.902,1.192,1.344,1.795
		c0.599,0.818,1.186,1.646,1.764,2.48c0.416,0.598,0.833,1.195,1.237,1.801c0.607,0.91,1.192,1.837,1.775,2.765
		c0.341,0.545,0.693,1.082,1.025,1.632c0.841,1.394,1.655,2.805,2.439,4.236c0.162,0.295,0.314,0.594,0.473,0.891
		c0.704,1.314,1.389,2.64,2.044,3.984c0.279,0.571,0.537,1.152,0.806,1.729c0.474,1.016,0.943,2.036,1.389,3.067
		c0.28,0.648,0.546,1.302,0.814,1.957c0.405,0.988,0.799,1.981,1.178,2.982c0.254,0.671,0.503,1.347,0.743,2.025
		c0.366,1.025,0.712,2.057,1.049,3.096c0.212,0.655,0.429,1.309,0.631,1.968c0.352,1.152,0.675,2.316,0.991,3.482
		c0.151,0.554,0.313,1.103,0.455,1.662c0.439,1.726,0.847,3.465,1.208,5.221c0.033,0.159,0.056,0.322,0.088,0.481
		c0.323,1.605,0.613,3.221,0.868,4.849c0.091,0.583,0.163,1.174,0.246,1.76c0.125,0.886,0.235,1.776,0.34,2.668H269.588V156.197
		H269.589z"/>
</g>
</svg>